#N canvas 699 63 490 365 10;
#X msg 49 198 destroy;
#X obj 21 242 gemwin 30;
#X msg 27 153 frame \$1;
#X obj 61 15 loadbang;
#X msg 39 176 create \, 1;
#X obj 84 56 t b b b;
#X obj 19 98 nbx 4 20 100 1980 0 1 empty empty Window_Size 0 -8 0 14
-262144 -1 -1 640 256;
#X obj 117 97 nbx 4 20 1 60 0 1 empty empty FPS 0 -8 0 14 -262144 -1
-1 60 256;
#X obj 141 35 bng 15 250 50 0 empty empty GEM_Reset 17 7 0 10 -262144
-1 -1;
#X obj 199 97 openpanel;
#X msg 194 128 open \$1;
#N canvas 893 366 624 719 shader 0;
#X obj 35 128 gemhead;
#X obj 38 548 translateXYZ 0 0 0;
#X obj 36 206 glsl_fragment;
#X obj 61 235 change;
#X floatatom 65 261 5 0 0 0 - - -;
#X obj 80 293 change;
#X floatatom 84 319 5 0 0 0 - - -;
#X obj 67 369 pack 0 0;
#X obj 83 342 t b f;
#X msg 67 395 link \$1 \$2;
#X obj 37 523 glsl_program;
#X obj 38 607 square 4;
#X msg 201 453 resolution \$1 \$1;
#X obj 165 37 inlet;
#X obj 269 38 inlet;
#X msg 356 460 time \$1;
#X obj 325 334 metro 100;
#X obj 356 414 f 0;
#X obj 408 412 + 1;
#X obj 350 41 inlet;
#X obj 399 40 inlet;
#X obj 378 167 inv;
#X floatatom 373 437 5 0 0 0 - - -;
#X msg 449 377 0;
#X obj 377 289 * 1000;
#X obj 228 334 f 640;
#X obj 211 203 del 200;
#X obj 175 112 t b a b;
#X connect 0 0 2 0;
#X connect 1 0 11 0;
#X connect 2 0 10 0;
#X connect 2 1 5 0;
#X connect 3 0 4 0;
#X connect 4 0 7 0;
#X connect 5 0 6 0;
#X connect 6 0 8 0;
#X connect 7 0 9 0;
#X connect 8 0 7 0;
#X connect 8 1 7 1;
#X connect 9 0 10 0;
#X connect 10 0 1 0;
#X connect 12 0 10 0;
#X connect 13 0 27 0;
#X connect 14 0 10 0;
#X connect 15 0 10 0;
#X connect 16 0 17 0;
#X connect 17 0 18 0;
#X connect 17 0 15 0;
#X connect 17 0 22 0;
#X connect 18 0 17 1;
#X connect 19 0 25 0;
#X connect 20 0 21 0;
#X connect 21 0 18 1;
#X connect 21 0 24 0;
#X connect 23 0 18 0;
#X connect 24 0 16 1;
#X connect 25 0 12 0;
#X connect 26 0 25 0;
#X connect 27 0 26 0;
#X connect 27 1 2 0;
#X connect 27 2 16 0;
#X restore 219 271 pd shader;
#X obj 239 57 bng 15 250 50 0 empty empty open_Fragment_Shader 17 7
0 10 -262144 -1 -1;
#X msg 20 132 reset \, dimen \$1 \$1;
#X obj 298 86 vsl 15 128 0 10 0 0 empty empty empty 0 -9 0 10 -260097
-1 -1 0 1;
#X msg 275 223 inputval1 \$1;
#X obj 228 23 cnv 15 220 30 empty empty empty 20 12 0 14 -260097 -66577
0;
#X msg 234 30 open components/22355_tunnel.frag;
#X connect 0 0 1 0;
#X connect 2 0 1 0;
#X connect 3 0 5 0;
#X connect 4 0 1 0;
#X connect 5 0 4 0;
#X connect 5 1 7 0;
#X connect 5 2 6 0;
#X connect 6 0 13 0;
#X connect 6 0 11 2;
#X connect 7 0 2 0;
#X connect 7 0 11 3;
#X connect 8 0 5 0;
#X connect 9 0 10 0;
#X connect 10 0 11 0;
#X connect 12 0 9 0;
#X connect 13 0 1 0;
#X connect 14 0 15 0;
#X connect 15 0 11 1;
#X connect 17 0 11 0;
