#N struct square float col float wid;
#N struct peakbar float col float x1 float x2;
#N canvas 683 22 581 537 10;
#X declare -path components;
#N canvas 831 22 508 420 conpane 0;
#X msg 47 305 destroy;
#X obj 19 349 gemwin 30;
#X obj 158 101 nbx 3 16 1 60 0 1 global_fps global_getfps fps 50 8
0 14 -262130 -1 -1 30 256;
#X obj 16 101 nbx 4 16 128 1920 0 1 global_reso_x global_getreso_x
x-reso 61 8 0 14 -262130 -1 -1 640 256;
#X msg 25 260 frame \$1;
#X obj 16 76 tgl 20 0 empty empty Window 23 12 0 15 -257985 -1 -1 1
1;
#X obj 165 209 route 1;
#X obj 22 7 loadbang;
#X obj 111 76 tgl 20 0 global_run empty Run 23 12 0 15 -24198 -33289
-33289 1 1;
#X obj 267 33 route 0;
#X msg 354 88 color 13 12 12;
#X msg 383 128 color 16 12 12;
#X msg 343 59 label Run;
#X msg 265 58 label Pause;
#X msg 169 179 \$1;
#X obj 52 47 t b b;
#X obj 33 25 t b b b b b;
#X msg 204 260 0;
#X obj 16 120 nbx 4 16 128 1024 0 1 global_reso_y global_getreso_y
y-reso 61 8 0 14 -262130 -1 -1 640 256;
#X obj 338 182 r global_getreso;
#X obj 337 207 t b b;
#X obj 365 235 s global_getreso_y;
#X obj 332 255 s global_getreso_x;
#X msg 18 239 reset \, dimen \$1 \$2;
#X obj 228 210 pack f f;
#X obj 235 182 t b f;
#X obj 16 200 t b l;
#X obj 147 241 t b b;
#X obj 228 160 route 1;
#X msg 37 283 create \, 0;
#X msg 176 320 dimen 400 300;
#X obj 183 149 t f f;
#X msg 16 48 0;
#X msg 118 47 0;
#X msg 149 46 1;
#X connect 0 0 1 0;
#X connect 2 0 4 0;
#X connect 3 0 24 0;
#X connect 4 0 1 0;
#X connect 5 0 6 0;
#X connect 6 0 27 0;
#X connect 6 1 0 0;
#X connect 6 1 17 0;
#X connect 7 0 16 0;
#X connect 8 0 9 0;
#X connect 8 0 31 0;
#X connect 9 0 13 0;
#X connect 9 0 10 0;
#X connect 9 1 12 0;
#X connect 9 1 11 0;
#X connect 10 0 8 0;
#X connect 11 0 8 0;
#X connect 12 0 8 0;
#X connect 13 0 8 0;
#X connect 14 0 1 0;
#X connect 15 1 33 0;
#X connect 16 0 15 0;
#X connect 16 1 32 0;
#X connect 16 2 3 0;
#X connect 16 3 18 0;
#X connect 17 0 8 0;
#X connect 18 0 25 0;
#X connect 19 0 20 0;
#X connect 20 0 22 0;
#X connect 20 1 21 0;
#X connect 23 0 1 0;
#X connect 24 0 26 0;
#X connect 25 0 24 0;
#X connect 25 1 24 1;
#X connect 26 0 2 0;
#X connect 26 1 23 0;
#X connect 27 0 34 0;
#X connect 27 1 29 0;
#X connect 28 0 24 0;
#X connect 29 0 1 0;
#X connect 30 0 1 0;
#X connect 31 0 14 0;
#X connect 31 1 28 0;
#X connect 32 0 5 0;
#X connect 33 0 8 0;
#X connect 34 0 8 0;
#X coords 0 -1 1 1 235 69 2 6 70;
#X restore 8 10 pd conpane;
#X obj 447 16 adc~;
#X msg 204 291 spd \$1;
#X msg 127 316 inputval2 \$1;
#X obj 112 243 abcknob 0 30 -3 3 0 0 empty \$0-S2_val empty 0 -9 0
10 -99865 -258113 -1 0 0;
#X floatatom 127 179 5 0 0 0 - - -;
#X msg 37 314 inputval1 \$1;
#X obj 121 200 * 10;
#X obj 42 229 abcknob 0 30 0 1 0 0 empty \$0-S1_val sense 0 -9 0 10
-261682 -258113 -1 0 1;
#X obj 36 291 * 1;
#X obj 347 227 abcknob 0 30 0 1 0 0 empty \$0-S3_val sense 0 -9 0 10
-261234 -258113 -1 0 1;
#X obj 207 233 max 1;
#X obj 61 355 r midicc1;
#X obj 148 355 r midicc2;
#X obj 259 357 r midicc3;
#X obj 371 356 r midicc4;
#X obj 210 210 * 6;
#X obj 262 292 * 0.3;
#N canvas 579 433 223 224 midicontrol-thiswindow 0;
#X obj -1497 -268 r midicc5;
#X obj -1498 -237 unpack s f;
#X obj -1379 -251 loadbang;
#X obj -1379 -227 \$0;
#X obj -1498 -199 pack s f;
#X obj -1500 -74 s;
#X obj -1456 -104 f 0;
#X obj -1498 -138 t b s;
#X msg -1498 -166 symbol \$2-\$1_val;
#X connect 0 0 1 0;
#X connect 1 0 4 0;
#X connect 1 1 6 1;
#X connect 2 0 3 0;
#X connect 3 0 4 1;
#X connect 4 0 8 0;
#X connect 6 0 5 0;
#X connect 7 0 6 0;
#X connect 7 1 5 1;
#X connect 8 0 7 0;
#X restore 11 108 pd midicontrol-thiswindow;
#X obj 462 45 abcmeter_h;
#N canvas 1561 495 450 300 process1 0;
#X obj 98 25 inlet~;
#X obj 105 231 outlet;
#X obj 112 129 env~;
#X obj 102 82 hip~ 700;
#X obj 109 105 lop~ 7000;
#X obj 107 150 / 80;
#X obj 108 180 * 2;
#X connect 0 0 3 0;
#X connect 2 0 5 0;
#X connect 3 0 4 0;
#X connect 4 0 2 0;
#X connect 5 0 6 0;
#X connect 6 0 1 0;
#X restore 426 235 pd process1;
#X text 439 411 >> add [fshader 5];
#N canvas 1574 508 450 300 process2 0;
#X obj 37 37 inlet~;
#X obj 44 209 outlet;
#X obj 84 112 env~;
#X obj 41 72 lop~ 100;
#X obj 41 141 max 84;
#X obj 37 164 - 84;
#X floatatom 125 149 5 0 0 0 - - -;
#X connect 0 0 3 0;
#X connect 2 0 4 0;
#X connect 3 0 2 0;
#X connect 4 0 5 0;
#X connect 5 0 1 0;
#X connect 6 0 4 1;
#X connect 6 0 5 1;
#X restore 251 165 pd process2;
#N canvas 1 580 766 458 midicontrol-shaders 0;
#X obj 168 125 route 2 3 4 5;
#X msg 170 156 1;
#X msg 205 156 2;
#X msg 239 156 3;
#X msg 273 156 4;
#X msg 21 84 1;
#X msg 73 86 0;
#X obj 20 115 gate 1;
#X obj 206 417 send;
#X msg 207 307 127;
#X msg 241 307 0;
#X obj 381 393 s midicc_offset;
#X obj 285 392 s midicc_scale;
#X obj 37 222 r midicc_offset;
#X obj 36 168 r midicc_scale;
#X obj 20 199 / 1;
#X obj 19 248 + 0;
#X msg 187 263 symbol alpha;
#X msg 47 320 \$2 \$1;
#X obj 51 14 ctlin;
#X obj 347 122 route 69 70 16 17;
#X msg 353 150 1;
#X msg 385 151 2;
#X msg 417 151 3;
#X msg 452 153 4;
#X msg 375 260 symbol spd;
#X msg 379 306 6.34;
#X msg 417 306 -10;
#X obj 556 125 route 18 19 20 21;
#X msg 353 238 symbol midicc\$1;
#X obj 192 191 t b f;
#X obj 367 191 t b f;
#X msg 546 313 127;
#X msg 578 313 0;
#X msg 634 313 21.3;
#X msg 673 313 -3;
#X msg 544 207 5;
#X msg 563 161 1;
#X msg 595 162 2;
#X msg 627 162 3;
#X msg 662 164 4;
#X obj 19 294 pack f s;
#X msg 586 263 symbol S\$1;
#X text 555 90 CC# 18 \, 19 \, 20 \, 21 assigned to \; knobs of the
main window;
#X text 159 89 CC# 2 \, 3 \, 4 \, 5 assigned to \; alpha of fshaders
1 \, 2 \, 3 \, 4;
#X text 347 90 CC# 69 \, 70 \, 16 \, 17 assigned to \; speed of fshaders
1 \, 2 \, 3 \, 4;
#X floatatom 76 54 5 0 0 0 - - -;
#X floatatom 38 54 5 0 0 0 - - -;
#X connect 0 0 1 0;
#X connect 0 1 2 0;
#X connect 0 2 3 0;
#X connect 0 3 4 0;
#X connect 0 4 20 0;
#X connect 1 0 30 0;
#X connect 2 0 30 0;
#X connect 3 0 30 0;
#X connect 4 0 30 0;
#X connect 5 0 7 0;
#X connect 6 0 7 0;
#X connect 7 0 15 0;
#X connect 9 0 12 0;
#X connect 10 0 11 0;
#X connect 13 0 16 1;
#X connect 14 0 15 1;
#X connect 15 0 16 0;
#X connect 16 0 41 0;
#X connect 17 0 9 0;
#X connect 17 0 10 0;
#X connect 17 0 41 1;
#X connect 18 0 8 0;
#X connect 19 0 7 1;
#X connect 19 0 47 0;
#X connect 19 1 0 0;
#X connect 19 1 46 0;
#X connect 19 2 5 0;
#X connect 20 0 21 0;
#X connect 20 1 22 0;
#X connect 20 2 23 0;
#X connect 20 3 24 0;
#X connect 20 4 28 0;
#X connect 21 0 31 0;
#X connect 22 0 31 0;
#X connect 23 0 31 0;
#X connect 24 0 31 0;
#X connect 25 0 26 0;
#X connect 25 0 27 0;
#X connect 25 0 41 1;
#X connect 26 0 12 0;
#X connect 27 0 11 0;
#X connect 28 0 37 0;
#X connect 28 1 38 0;
#X connect 28 2 39 0;
#X connect 28 3 40 0;
#X connect 28 4 6 0;
#X connect 29 0 8 1;
#X connect 30 0 17 0;
#X connect 30 1 29 0;
#X connect 31 0 25 0;
#X connect 31 1 29 0;
#X connect 32 0 12 0;
#X connect 33 0 11 0;
#X connect 34 0 12 0;
#X connect 35 0 11 0;
#X connect 36 0 29 0;
#X connect 37 0 33 0;
#X connect 37 0 42 0;
#X connect 37 0 32 0;
#X connect 38 0 34 0;
#X connect 38 0 35 0;
#X connect 38 0 42 0;
#X connect 39 0 32 0;
#X connect 39 0 33 0;
#X connect 39 0 42 0;
#X connect 40 0 32 0;
#X connect 40 0 33 0;
#X connect 40 0 42 0;
#X connect 41 0 18 0;
#X connect 42 0 41 1;
#X connect 42 0 36 0;
#X restore 11 87 pd midicontrol-shaders;
#X obj 203 255 min 20;
#X obj 324 289 * 0.2;
#X obj 420 262 * 0.6;
#X msg 212 314 inputval1 \$1;
#X msg 313 314 inputval1 \$1;
#X msg 407 315 inputval1 \$1;
#X obj 39 379 fshader 1;
#X obj 420 291 max 0.2;
#X obj 11 129 path components;
#X msg 132 494 open 10982_linefb.frag;
#X msg 228 471 open 21763_towers.frag;
#X msg 334 494 open 18754_raymarting.frag;
#N canvas 1001 231 450 300 META 0;
#X text 20 17 NAME Shaderjockey;
#X text 20 37 RELEASE Jan. 18 2015;
#X text 20 104 AUTHOR Yoichi HIRATA;
#X text 20 121 WEBSITE http://tkrkapps.blogspot.jp;
#X text 20 56 DESCRIPTION \; GLSL sandbox-compatible Shader player
& controller \; Shaders from GLSL sandbox and Shadertoy;
#X restore 11 150 pd META;
#X obj 140 378 fshader 2;
#X obj 241 378 fshader 3;
#X obj 340 378 fshader 4;
#X msg 32 473 open 21653_fracroll_diet.frag;
#X connect 1 0 20 0;
#X connect 1 0 19 0;
#X connect 1 0 22 0;
#X connect 2 0 37 1;
#X connect 3 0 30 1;
#X connect 4 0 3 0;
#X connect 5 0 7 0;
#X connect 6 0 30 1;
#X connect 7 0 9 0;
#X connect 8 0 9 1;
#X connect 9 0 6 0;
#X connect 10 0 25 1;
#X connect 11 0 24 0;
#X connect 12 0 30 1;
#X connect 13 0 37 1;
#X connect 14 0 38 1;
#X connect 15 0 39 1;
#X connect 16 0 11 0;
#X connect 17 0 27 0;
#X connect 20 0 25 0;
#X connect 20 0 26 0;
#X connect 22 0 5 0;
#X connect 22 0 17 0;
#X connect 22 0 16 0;
#X connect 24 0 2 0;
#X connect 25 0 28 0;
#X connect 26 0 31 0;
#X connect 27 0 37 1;
#X connect 28 0 38 1;
#X connect 29 0 39 1;
#X connect 31 0 29 0;
#X connect 33 0 37 0;
#X connect 34 0 38 0;
#X connect 35 0 39 0;
#X connect 40 0 30 0;
