#N canvas 329 234 429 300 10;
#X obj 102 173 abcknob -1 30 -1 1 0 1 empty empty A 13 30 0 10 -1 -4034
-1 6350 0;
#X floatatom 102 239 5 0 0 0 - - -;
#X msg 102 116 base \$1;
#X msg 266 117 meter \$1;
#X msg 268 86 0;
#X msg 304 86 1;
#X obj 266 166 abcknob 0 40 0 127 0 0 empty empty B 18 40 0 10 -4160
-260097 -1 0 1;
#X text 98 20 [abcknob] - a good look & feel knob;
#X text 93 61 base value configurable;
#N canvas 454 444 420 300 META 0;
#X text 16 14 NAME abcknob;
#X text 16 69 AUTHOR Yoichi HIRATA;
#X text 16 51 DESCRIPTION knob controller GUI;
#X text 16 32 KEYWORDS knob controller dial;
#X text 16 88 WEBSITE http://tkrkapps.blogspot.jp;
#X text 16 106 LICENSE SIBSD;
#X restore 367 274 pd META;
#X msg 100 85 -1;
#X msg 135 85 0;
#X msg 168 85 1;
#X text 276 62 meter;
#X floatatom 266 239 5 0 0 0 - - -;
#X connect 0 0 1 0;
#X connect 2 0 0 0;
#X connect 3 0 6 0;
#X connect 4 0 3 0;
#X connect 5 0 3 0;
#X connect 6 0 14 0;
#X connect 10 0 2 0;
#X connect 11 0 2 0;
#X connect 12 0 2 0;
