#N struct square float col float wid;
#N struct peakbar float col float x1 float x2;
#N canvas 140 257 897 632 12;
#X scalar square 62 1.38529e-05 \;;
#X scalar peakbar 33 1.39161e-05 0.0200139 \;;
#N canvas 287 364 450 290 square 0;
#X obj 53 71 filledpolygon col 0 0 0 0 wid 0 wid 10 0 10;
#X obj 42 32 struct square float col float wid;
#X restore 721 14 pd square;
#N canvas 990 150 824 753 meterstructure 0;
#X obj 271 162 pointer;
#X obj 299 308 set square col;
#X obj 574 6 inlet~;
#X obj 389 68 dbtorms;
#X obj 148 206 append square wid;
#X floatatom 94 209 5 0 0 0 - - -;
#X obj 119 245 set square wid;
#X obj 266 341 set square wid;
#X floatatom 249 273 5 0 0 0 - - -;
#X obj 295 56 loadbang;
#X obj 400 103 * 1;
#X msg 134 179 1;
#X msg 308 130 next;
#X obj 420 218 * 50;
#X msg 88 281 0;
#X obj 477 279 pointer;
#X msg 490 252 next;
#X obj 433 315 append peakbar x1;
#X obj 463 404 set peakbar x1 x2;
#X obj 574 340 t f f;
#X obj 289 78 t b b b;
#X obj 99 584 s \$0-peakvisible;
#X msg 100 542 0;
#X obj 104 488 sel 1;
#X obj 156 544 bng 15 250 50 0 empty empty empty 17 7 0 10 -262144
-1 -1;
#X obj 106 461 change;
#X obj 377 531 - 0;
#X obj 406 506 f 0;
#X floatatom 378 567 5 0 0 0 - - -;
#X obj 375 422 t f f;
#X obj 333 458 spigot;
#X floatatom 449 553 5 0 0 0 - - -;
#X floatatom 335 569 5 0 0 0 - - -;
#X obj 330 540 >= 0;
#X obj 176 432 < 0;
#X floatatom 193 468 5 0 0 0 - - -;
#X obj 552 536 - 0;
#X obj 580 511 f 0;
#X obj 552 483 t f f;
#X obj 455 471 spigot;
#X obj 546 568 > 0;
#X obj 420 628 > 0;
#X obj 423 656 change;
#X obj 422 690 s \$0-peakvisible;
#X obj 556 677 sel 1;
#X obj 543 652 change;
#X obj 636 400 set peakbar col;
#X floatatom 374 395 5 0 0 0 - - -;
#X msg 587 707 900;
#X obj 562 372 + 0.02;
#X msg 497 193 42;
#X msg 619 709 33;
#X msg 25 131 traverse pd-abcmeter_h.pd \, bang;
#X msg 568 83 \; pd-abcmeter_h clear;
#X obj 99 515 del 600;
#X obj 387 30 env~;
#X obj 540 628 > 0.9;
#X connect 0 0 4 1;
#X connect 0 0 6 1;
#X connect 0 0 7 1;
#X connect 0 0 1 1;
#X connect 0 0 15 0;
#X connect 2 0 55 0;
#X connect 3 0 10 0;
#X connect 5 0 6 0;
#X connect 8 0 7 0;
#X connect 9 0 20 0;
#X connect 10 0 7 0;
#X connect 10 0 47 0;
#X connect 11 0 4 0;
#X connect 12 0 0 0;
#X connect 13 0 1 0;
#X connect 14 0 17 0;
#X connect 15 0 17 1;
#X connect 15 0 18 2;
#X connect 15 0 46 1;
#X connect 16 0 15 0;
#X connect 19 0 18 0;
#X connect 19 1 49 0;
#X connect 20 0 16 0;
#X connect 20 1 12 0;
#X connect 20 2 52 0;
#X connect 22 0 24 0;
#X connect 22 0 27 0;
#X connect 22 0 21 0;
#X connect 23 0 54 0;
#X connect 25 0 23 0;
#X connect 26 0 28 0;
#X connect 26 0 33 0;
#X connect 26 0 34 0;
#X connect 27 0 26 1;
#X connect 27 0 31 0;
#X connect 27 0 19 0;
#X connect 29 0 30 0;
#X connect 29 1 26 0;
#X connect 30 0 39 0;
#X connect 31 0 41 0;
#X connect 31 0 56 0;
#X connect 33 0 32 0;
#X connect 33 0 30 1;
#X connect 34 0 25 0;
#X connect 34 0 35 0;
#X connect 36 0 40 0;
#X connect 37 0 36 1;
#X connect 38 0 37 0;
#X connect 38 1 36 0;
#X connect 39 0 27 0;
#X connect 40 0 39 1;
#X connect 41 0 42 0;
#X connect 42 0 43 0;
#X connect 44 0 48 0;
#X connect 44 1 51 0;
#X connect 45 0 44 0;
#X connect 47 0 29 0;
#X connect 47 0 38 0;
#X connect 48 0 46 0;
#X connect 49 0 18 1;
#X connect 50 0 1 0;
#X connect 51 0 46 0;
#X connect 52 0 0 0;
#X connect 54 0 22 0;
#X connect 55 0 3 0;
#X connect 56 0 45 0;
#X restore 720 48 pd meterstructure;
#X obj 661 9 inlet~;
#N canvas 640 391 450 300 peakbar 0;
#X obj 36 86 r \$0-peakvisible;
#X obj 52 42 struct peakbar float col float x1 float x2;
#X obj 62 121 filledpolygon col col 0 x1 0 x2 0 x2 10 x1 10;
#X connect 0 0 2 0;
#X restore 722 81 pd peakbar;
#X connect 4 0 3 0;
#X coords 0 0 1 10 85 10 2 0 0;
