#N canvas 205 61 772 1055 10;
#X obj 44 310 glsl_fragment;
#X obj 138 295 change;
#X floatatom 142 321 5 0 0 0 - - -, f 5;
#X obj 157 353 change;
#X floatatom 161 379 5 0 0 0 - - -, f 5;
#X obj 144 429 pack 0 0;
#X msg 144 455 link \$1 \$2;
#X obj 45 627 glsl_program;
#X msg 348 536 time \$1;
#X obj 359 391 * 1000;
#X obj 317 422 metro 100;
#N canvas 176 182 450 300 mousepointer 0;
#X obj 42 34 gemmouse;
#X obj 43 81 / 600;
#X obj 63 56 r \$0_reso;
#X obj 87 81 / 600;
#X msg 42 130 mouse \$1 \$2;
#X obj 59 109 pack f f;
#X obj 46 162 outlet;
#X connect 0 0 1 0;
#X connect 0 1 3 0;
#X connect 1 0 5 0;
#X connect 2 0 1 1;
#X connect 3 0 5 1;
#X connect 4 0 6 0;
#X connect 5 0 4 0;
#X restore 263 592 pd mousepointer;
#X obj 205 124 inlet;
#X obj 303 54 inlet;
#X obj 577 142 s \$0_vari;
#X obj 433 537 r \$0_vari;
#X obj 85 656 gemframebuffer;
#X msg 401 686 \$1;
#X floatatom 433 725 5 0 0 0 - - -, f 5;
#X obj 310 715 pix_texture;
#X obj 44 236 ortho;
#X obj 44 209 gemhead 20;
#X obj 71 688 translateXYZ 0 0 -4;
#X obj 72 713 square 4;
#X text 379 622 sandbox uses sampler2D for backbuffer \, so texture
must be 2D-mode (ARB-rect not permitted);
#X obj 266 873 f 0;
#X floatatom 281 909 5 0 0 0 - - -, f 5;
#X msg 474 874 texunit \$1;
#X msg 358 885 backbuffer \$1;
#X obj 474 904 print;
#X obj 278 278 s \$0-settexunitid;
#X obj 238 777 r \$0-settexunitid;
#X obj 222 326 t b b;
#X obj 214 291 del 100;
#X obj 65 971 gemframebuffer;
#X obj 406 967 pix_texture;
#X obj 408 1036 square 4;
#X obj 405 933 gemhead 60;
#X obj 5 71 nbx 4 14 1 16 0 0 \$0-qual \$0-getqual quality 0 -6 0 10
-262144 -1 -1 1 256;
#X obj 101 6 loadbang;
#X msg 126 34 1;
#X obj 315 336 r global_fps;
#X obj 313 314 s global_getfps;
#X obj 420 209 r \$0-getreso;
#X obj 584 482 s \$0-reso;
#X obj 455 285 s \$0-getqual;
#X obj 463 232 t b b;
#X obj 574 285 r \$0-qual;
#X obj 612 362 t b f;
#X obj 624 393 / 1;
#X obj 216 459 r \$0-reso;
#X obj 238 432 s \$0-getreso;
#X obj 122 916 r \$0-reso;
#X obj 403 261 s global_getreso;
#X obj 348 502 f 0;
#X obj 400 500 + 1;
#X obj 414 468 * 1;
#X obj 436 407 r \$0-clockspd;
#X obj 415 433 t b f;
#X obj 4 22 abcknob 0 26 -5 5 0 1 \$0-clockspd \$0-set_clockspd SPD
4 30 0 10 -1 -260097 -1 7620 1;
#X obj 65 1025 square 4;
#X obj 66 1000 translateXYZ 0 0 -4;
#X floatatom 548 962 5 0 0 0 - - -, f 5;
#X obj 405 1013 alpha;
#X obj 311 673 gemhead 21;
#X obj 351 923 + 60;
#X msg 398 907 set \$1;
#X obj 176 166 loadbang;
#X obj 2 2 bng 15 250 50 0 empty \$0-openbutton fshader_0 17 7 0 10
-262144 -1 -1;
#X obj 6 106 openpanel;
#X msg 8 150 open \$1;
#X obj 36 22 abcknob 0 26 0 1 0 1 \$0-alpha \$0-setalpha ALPHA- -2
30 0 10 -228856 -1 -1 12700 1;
#X obj 145 880 s \$0-openbutton;
#X obj 304 91 route spd;
#X obj 251 124 s \$0-set_clockspd;
#X obj 68 43 tgl 15 0 \$0-alphabutton_cng \$0-alphabutton A 5 8 0 10
-258699 -258699 -262144 0 1;
#X obj 549 907 r \$0-alphabutton_cng;
#X obj 380 92 route alpha;
#X obj 380 123 s \$0-setalpha;
#X obj 407 990 color 1 1 1 0.5;
#X obj 53 70 tgl 15 0 \$0-startstop_cng \$0-startstop ON 17 7 0 10
-24198 -24198 -143491 1 1;
#X obj 44 182 r \$0-gem_enable;
#N canvas 1371 22 540 252 GUI-button 0;
#X msg 46 137 label A;
#X obj 94 178 s \$0-alphabutton;
#X msg 137 137 label B;
#X msg 45 114 color 13 13 0;
#X msg 139 114 color 18 18 0;
#X obj 83 50 r \$0-alphabutton_cng;
#X obj 313 60 sel 0;
#X obj 344 199 s \$0-startstop;
#X obj 308 36 r \$0-startstop_cng;
#X msg 335 87 0;
#X msg 417 85 1;
#X msg 291 139 label OFF;
#X msg 404 138 label ON;
#X msg 402 159 color 16 16 23;
#X msg 289 162 color 11 11 23;
#X obj 432 118 s \$0-gem_enable;
#X obj 78 83 sel 1;
#X connect 0 0 1 0;
#X connect 2 0 1 0;
#X connect 3 0 1 0;
#X connect 4 0 1 0;
#X connect 5 0 16 0;
#X connect 6 0 11 0;
#X connect 6 0 9 0;
#X connect 6 0 14 0;
#X connect 6 1 12 0;
#X connect 6 1 10 0;
#X connect 8 0 6 0;
#X connect 9 0 15 0;
#X connect 10 0 15 0;
#X connect 11 0 7 0;
#X connect 12 0 7 0;
#X connect 12 0 13 0;
#X connect 13 0 7 0;
#X connect 14 0 7 0;
#X connect 16 0 4 0;
#X connect 16 0 2 0;
#X connect 16 1 3 0;
#X connect 16 1 0 0;
#X restore 588 8 pd GUI-button;
#X obj 556 931 == 0;
#X obj 237 814 float \$1;
#X msg 134 856 label fshader_\$1;
#X msg 96 35 0;
#X obj 553 750 loadbang;
#X obj 215 395 s \$0-alphareset;
#X obj 628 747 r \$0-alphareset;
#X obj 159 402 t b f b;
#X msg 657 824 1;
#X obj 631 723 r \$0-alpha;
#X msg 553 775 0;
#X obj 552 799 t f f;
#X msg 558 862 \$2 \$2 \$2 \$1;
#X obj 566 836 pack f f;
#X obj 622 800 s \$0-setalpha;
#X obj 627 772 t b b;
#X obj 475 91 route enable;
#X obj 478 126 s \$0-enable;
#X obj 122 76 r \$0-enable;
#X obj 43 269 glsl_vertex;
#X obj 139 514 print abc;
#X obj 209 203 t b b b a b;
#X obj 618 342 r global_reso_y;
#X obj 576 331 t f f;
#X obj 528 366 t b f;
#X obj 462 344 r global_reso_x;
#X obj 554 391 / 1;
#X obj 563 425 pack f f;
#X obj 203 504 t l l;
#X msg 213 536 resolution \$1 \$2;
#X msg 122 944 type FLOAT \, dimen \$1 \$2 \, rectangle 0;
#X obj 107 120 symbol;
#X msg 100 97 abc;
#X obj 116 148 print x;
#X obj 154 115 bng 15 250 50 0 empty empty empty 17 7 0 10 -262144
-1 -1;
#X obj 334 198 r global_run;
#X obj 335 221 sel 1;
#X obj 571 455 list;
#X obj 557 308 t b f;
#X obj 362 243 t b b;
#X obj 386 863 f 0;
#X obj 365 811 t b f;
#X obj 354 839 del 200;
#X obj 102 773 change;
#X floatatom 101 808 5 0 0 0 - - -, f 5;
#X msg 142 629 type FLOAT \, dimen \$1 \$2 \, rectangle 0;
#X msg 92 243 open surfacevertexshader.vert;
#N canvas 984 330 450 300 inv 0;
#X obj 157 43 inlet;
#X obj 175 154 outlet;
#X obj 169 74 t b f;
#X obj 177 121 / 1;
#X msg 154 96 1;
#X connect 0 0 2 0;
#X connect 2 0 4 0;
#X connect 2 1 3 1;
#X connect 3 0 1 0;
#X connect 4 0 3 0;
#X restore 371 363 pd inv;
#X connect 0 0 7 0;
#X connect 0 1 3 0;
#X connect 1 0 2 0;
#X connect 2 0 5 0;
#X connect 3 0 4 0;
#X connect 4 0 90 0;
#X connect 5 0 6 0;
#X connect 6 0 7 0;
#X connect 6 0 103 0;
#X connect 7 0 16 0;
#X connect 7 0 34 0;
#X connect 7 1 126 0;
#X connect 8 0 7 0;
#X connect 9 0 10 1;
#X connect 10 0 54 0;
#X connect 11 0 7 0;
#X connect 12 0 104 0;
#X connect 13 0 73 0;
#X connect 15 0 7 0;
#X connect 16 0 22 0;
#X connect 16 1 19 1;
#X connect 17 0 18 0;
#X connect 19 1 17 0;
#X connect 20 0 102 0;
#X connect 21 0 20 0;
#X connect 22 0 23 0;
#X connect 25 0 26 0;
#X connect 25 0 65 0;
#X connect 25 0 85 0;
#X connect 25 0 124 0;
#X connect 27 0 16 0;
#X connect 27 0 29 0;
#X connect 28 0 29 0;
#X connect 28 0 7 0;
#X connect 31 0 84 0;
#X connect 32 0 51 0;
#X connect 32 1 42 0;
#X connect 33 0 32 0;
#X connect 34 0 61 0;
#X connect 34 1 35 1;
#X connect 35 0 79 0;
#X connect 37 0 35 0;
#X connect 39 0 40 0;
#X connect 39 0 86 0;
#X connect 40 0 38 0;
#X connect 40 0 80 0;
#X connect 41 0 130 0;
#X connect 43 0 46 0;
#X connect 46 0 45 0;
#X connect 46 1 53 0;
#X connect 47 0 121 0;
#X connect 48 0 49 0;
#X connect 48 1 49 1;
#X connect 49 0 110 1;
#X connect 50 0 111 0;
#X connect 52 0 113 0;
#X connect 54 0 55 0;
#X connect 54 0 8 0;
#X connect 55 0 54 1;
#X connect 56 0 55 1;
#X connect 57 0 58 0;
#X connect 58 0 56 0;
#X connect 58 1 56 1;
#X connect 61 0 60 0;
#X connect 62 0 36 1;
#X connect 63 0 36 0;
#X connect 64 0 19 0;
#X connect 65 0 66 0;
#X connect 66 0 37 0;
#X connect 67 0 104 0;
#X connect 68 0 69 0;
#X connect 69 0 70 0;
#X connect 70 0 104 0;
#X connect 73 0 74 0;
#X connect 73 1 77 0;
#X connect 76 0 83 0;
#X connect 77 0 78 0;
#X connect 77 1 99 0;
#X connect 79 0 63 0;
#X connect 81 0 21 0;
#X connect 83 0 63 1;
#X connect 84 0 25 0;
#X connect 85 0 72 0;
#X connect 86 0 75 0;
#X connect 87 0 93 0;
#X connect 89 0 98 0;
#X connect 90 0 5 0;
#X connect 90 1 5 1;
#X connect 90 2 88 0;
#X connect 91 0 96 1;
#X connect 92 0 96 0;
#X connect 93 0 94 0;
#X connect 94 0 96 0;
#X connect 94 1 96 1;
#X connect 95 0 79 1;
#X connect 96 0 95 0;
#X connect 98 0 97 0;
#X connect 98 1 91 0;
#X connect 99 0 100 0;
#X connect 99 1 14 0;
#X connect 101 0 80 0;
#X connect 102 0 0 0;
#X connect 102 1 1 0;
#X connect 104 0 10 0;
#X connect 104 1 33 0;
#X connect 104 2 30 0;
#X connect 104 3 0 0;
#X connect 104 4 129 0;
#X connect 105 0 49 0;
#X connect 106 0 107 0;
#X connect 106 1 48 0;
#X connect 107 0 109 0;
#X connect 107 1 109 1;
#X connect 108 0 109 0;
#X connect 109 0 110 0;
#X connect 110 0 120 1;
#X connect 111 0 128 0;
#X connect 111 1 112 0;
#X connect 112 0 7 0;
#X connect 113 0 34 0;
#X connect 114 0 116 0;
#X connect 115 0 114 0;
#X connect 117 0 114 0;
#X connect 118 0 119 0;
#X connect 119 0 122 0;
#X connect 120 0 44 0;
#X connect 121 0 120 0;
#X connect 121 1 106 0;
#X connect 122 0 120 0;
#X connect 122 1 53 0;
#X connect 123 0 28 0;
#X connect 124 0 125 0;
#X connect 124 1 27 0;
#X connect 124 1 123 1;
#X connect 125 0 123 0;
#X connect 126 0 127 0;
#X connect 128 0 16 0;
#X connect 129 0 102 0;
#X connect 130 0 9 0;
#X connect 130 0 56 0;
#X coords 0 -1 1 1 88 88 2 0 0;
